<svg width="120" height="83" viewBox="0 0 120 83" fill="none" xmlns="http://www.w3.org/2000/svg">
<path d="M51.4942 5.55C54.6427 2.95 59.5177 0.85 63.9356 0.15C64.3419 0.0999996 66.17 0.05 68.0489 0C70.7911 0.05 71.8067 0.199999 73.5841 0.699999C79.4747 2.4 84.9083 6.25 88.0059 11C88.5645 11.85 89.0216 12.5 89.1231 12.5C89.2247 12.5 90.088 12.25 91.1036 11.95C100.701 8.95 110.908 12.75 116.545 21.35C120.201 26.95 120.912 34.25 118.424 40.55C117.764 42.3 117.764 42.3 118.119 43.9C118.982 47.8 118.373 52.95 116.596 56.7C112.99 64.35 105.678 69.35 97.3497 69.8L94.7598 69.95L93.795 71.5C90.8497 76.35 85.9747 79.9 79.9825 81.65C77.545 82.4 71.8575 82.35 69.2677 81.6C65.4083 80.5 62.2091 78.7 59.4161 76.15L57.8419 74.65L56.6231 75.65C50.4786 80.75 42.7091 82.6 35.295 80.8C28.3887 79.2 22.6505 74.8 19.0958 68.5L17.9786 66.55L15.9473 65.75C7.92391 62.75 2.08406 55.85 0.3575 47.5C-0.251875 44.8 -0.04875 39.65 0.712969 36.95C2.69344 29.85 8.4825 23.35 15.2364 20.65L17.1153 19.85L17.5216 18.05C18.8419 12.35 23.3106 6.9 28.8966 4.25C32.4005 2.55 33.8223 2.25 37.8341 2.25C40.627 2.25 41.5919 2.3 43.1153 2.75C45.4512 3.4 47.5841 4.4 49.2598 5.5L50.5294 6.35L51.4942 5.55Z" fill="white" fill-opacity="0.95"/>
</svg>
