<svg width="60" height="60" viewBox="0 0 60 60" fill="none" xmlns="http://www.w3.org/2000/svg">
<rect width="60" height="60" rx="16" fill="#F588A9"/>
<path d="M29.7814 41.2182C36.2881 41.2182 41.5628 36.1615 41.5628 29.9237C41.5628 23.686 36.2881 18.6292 29.7814 18.6292C23.2747 18.6292 18 23.686 18 29.9237C18 36.1615 23.2747 41.2182 29.7814 41.2182Z" fill="white"/>
<path d="M44.9636 16.8244C44.1437 16.8244 43.3846 16.5333 42.8077 15.9803C42.5344 15.6892 42.3219 15.369 42.17 15.0197C42.0182 14.6703 41.9271 14.2919 41.9271 13.9135C41.9271 13.5351 42.0182 13.1567 42.17 12.8073C42.3219 12.4289 42.5344 12.1378 42.8077 11.8467C43.5061 11.1772 44.5688 10.857 45.5405 11.0608C45.753 11.0899 45.9352 11.1481 46.1174 11.2354C46.2996 11.2937 46.4818 11.381 46.664 11.4974C46.8158 11.5848 46.9676 11.7303 47.1194 11.8467C47.3927 12.1378 47.6053 12.4289 47.7571 12.8073C47.9089 13.1567 48 13.5351 48 13.9135C48 14.2919 47.9089 14.6703 47.7571 15.0197C47.6053 15.369 47.3927 15.6892 47.1194 15.9803C46.8158 16.2423 46.4818 16.446 46.1174 16.5916C45.753 16.7371 45.3583 16.8244 44.9636 16.8244Z" fill="white"/>
</svg>
