<svg width="33" height="35" viewBox="0 0 55 60" fill="none" xmlns="http://www.w3.org/2000/svg">
<path d="M39.8134 15.2547C44.8024 22.3161 42.6851 32.6648 34.6936 38.3109C26.7021 43.957 16.2407 42.4952 11.2517 35.4338C6.26274 28.3724 8.38 18.0237 16.3715 12.3776C24.363 6.73151 34.8245 8.19324 39.8134 15.2547Z" stroke="#ac2e63" stroke-width="3"/>
<path d="M33.8886 39.8036C33.4247 39.147 33.5809 38.2387 34.2375 37.7749V37.7749C34.894 37.311 35.8023 37.4672 36.2661 38.1238L49.0915 56.2769C49.5554 56.9335 49.3992 57.8417 48.7426 58.3056V58.3056C48.0861 58.7694 47.1778 58.6132 46.7139 57.9567L33.8886 39.8036Z" fill="#ac2e63"/>
</svg>
