<svg width="60" height="60" viewBox="0 0 60 60" fill="none" xmlns="http://www.w3.org/2000/svg">
<rect width="60" height="60" rx="16" fill="#F588A9"/>
<path d="M12.2679 27.753L34.3105 19.7427C36.4858 18.9083 43.8623 16.2382 43.8623 16.2382C43.8623 16.2382 47.267 15.0701 46.9832 17.9071C46.8887 19.0752 46.1321 23.1637 45.3755 27.5925L43.0112 40.6991C43.0112 40.6991 42.8221 42.6182 41.2144 42.9519C39.6065 43.2857 36.9586 41.7838 36.4858 41.45C36.1075 41.1996 29.3927 37.4449 26.9339 35.6092C26.2718 35.1085 25.5154 34.1073 27.0284 32.9391C30.4331 30.1856 34.4996 26.7646 36.9586 24.5951C38.0935 23.5938 39.2284 21.2575 34.4996 24.0945L21.1577 32.0084C21.1577 32.0084 19.6446 32.8428 16.8073 32.0919C13.9702 31.341 10.6602 30.3396 10.6602 30.3396C10.6602 30.3396 8.39045 29.088 12.2679 27.753Z" fill="white"/>
</svg>
